# AST/ASF file generated using VICON BodyLanguage
# -----------------------------------------------
:version 1.10
:name VICON
:units
  mass 1.0
  length 0.45
  angle deg
:documentation
   .ast/.asf automatically generated from VICON data using
   VICON BodyBuilder and BodyLanguage model FoxedUp or BRILLIANT.MOD
:root
   order TX TY TZ RX RY RZ
   axis XYZ
   position 0 0 0  
   orientation 0 0 0 
:bonedata
  begin
     id 1 
     name lhipjoint
     direction 0.589753 -0.68606 0.426044 
     length 2.54082 
     axis 0 0 0  XYZ
  end
  begin
     id 2 
     name lfemur
     direction 0.34202 -0.939693 0  
     length 7.04539  
     axis 0 0 20  XYZ
    dof rx ry rz
    limits (-160.0 20.0)
           (-70.0 70.0)
           (-60.0 70.0)
  end
  begin
     id 3 
     name ltibia
     direction 0.34202 -0.939693 0   
     length 7.83772   
     axis 0 0 20   XYZ
    dof rx
    limits (-10.0 170.0)
  end
  begin
     id 4 
     name lfoot
     direction 0.0596604 -0.163915 0.984669   
     length 2.39542   
     axis -90 7.62852e-016 20   XYZ
    dof rx rz
    limits (-45.0 90.0)
           (-70.0 20.0)
  end
  begin
     id 5 
     name ltoes
     direction 1.53514e-011 -4.21954e-011 1   
     length 1.2047   
     axis -90 7.62852e-016 20   XYZ
    dof rx
    limits (-90.0 20.0)
  end
  begin
     id 6 
     name rhipjoint
     direction -0.580585 -0.69168 0.429534   
     length 2.52018  
     axis 0 0 0  XYZ 
  end
  begin
     id 7 
     name rfemur
     direction -0.34202 -0.939693 0   
     length 7.0101   
     axis 0 0 -20   XYZ
    dof rx ry rz
    limits (-160.0 20.0)
           (-70.0 70.0)
           (-70.0 60.0)
  end
  begin
     id 8 
     name rtibia
     direction -0.34202 -0.939693 0   
     length 7.70628   
     axis 0 0 -20   XYZ
    dof rx
    limits (-10.0 170.0)
 end
 begin
     id 9 
     name rfoot
     direction -0.0696237 -0.19129 0.979061   
     length 2.52466  
     axis -90 -7.62852e-016 -20   XYZ
    dof rx rz
    limits (-45.0 90.0)
           (-20.0 70.0)
  end
  begin
     id 10 
     name rtoes
     direction -1.53519e-011 -4.21793e-011 1   
     length 1.266   
     axis -90 -7.62852e-016 -20   XYZ
    dof rx
    limits (-90.0 20.0)
  end
  begin
     id 11 
     name lowerback
     direction 0.00381965 0.995707 -0.0924856   
     length 2.20825   
     axis 0 0 0   XYZ
    dof rx ry rz
    limits (-20.0 45.0)
           (-30.0 30.0)
           (-30.0 30.0)
  end
  begin
     id 12 
     name upperback
     direction -0.0139043 0.999634 -0.0231929   
     length 2.21517   
     axis 0 0 0   XYZ
    dof rx ry rz
    limits (-20.0 45.0)
           (-30.0 30.0)
           (-30.0 30.0)
  end
  begin
     id 13 
     name thorax
     direction -0.0143933 0.999691 0.0202892   
     length 2.22911   
     axis 0 0 0   XYZ
    dof rx ry rz
    limits (-20.0 45.0)
           (-30.0 30.0)
           (-30.0 30.0)
  end
  begin
     id 14 
     name lowerneck
     direction -0.0251153 0.981819 0.188153   
     length 1.61782   
     axis 0 0 0   XYZ
    dof rx ry rz
    limits (-20.0 45.0)
           (-30.0 30.0)
           (-30.0 30.0)
  end
  begin
     id 15 
     name upperneck
     direction 0.0563891 0.969357 -0.239095   
     length 1.64526   
     axis 0 0 0   XYZ
    dof rx ry rz
    limits (-20.0 45.0)
           (-30.0 30.0)
           (-30.0 30.0)
  end
  begin
     id 16
     name head
     direction 0.0208328 0.99459 -0.101773  
     length 1.67436  
     axis 0 0 0   XYZ
    dof rx ry rz
    limits (-20.0 45.0)
           (-30.0 30.0)
           (-30.0 30.0)
  end
  begin
     id 17 
     name lclavicle
     direction 0.917689 0.397224 0.00772059  
     length 3.31102  
     axis 0 0 0   XYZ
    dof ry rz
    limits (-20.0 10.0)
           (0.0 20.0)
  end
  begin
     id 18 
     name lhumerus
     direction 1 -4.4896e-011 2.32308e-027   
     length 5.25537   
     axis 180 -30 -90   XYZ
    dof rx ry rz
    limits (-60.0 90.0)
           (-90.0 90.0)
           (-90.0 90.0)
  end
  begin
     id 19
     name lradius
     direction 1 -4.49005e-011 -2.04271e-027   
     length 3.38855   
     axis 180 -30 -90   XYZ
    dof rx
    limits (-10.0 170.0)
  end
  begin
     id 20
     name lwrist
     direction 1 -4.48892e-011 2.56952e-028   
     length 1.69428   
     axis -5.12785e-016 90 90   XYZ
    dof ry
    limits (-180.0 0.0)
 end
  begin
     id 21 
     name lhand
     direction 1 -4.48966e-011 5.13905e-028   
     length 0.614516   
     axis -3.27915e-016 90 90   XYZ
    dof rx rz
    limits (-90.0 90.0)
           (-45.0 45.0)
  end
  begin
     id 22 
     name lfingers
     direction 1 -4.48979e-011 1.02781e-027   
     length 0.495439   
     axis -6.5583e-016 90 90   XYZ
    dof rx
    limits (0.0 90.0)
  end
  begin
     id 23
     name lthumb
     direction 0.707107 -6.35001e-011 0.707107   
     length 0.711354   
     axis -90 45 2.85299e-015   XYZ
    dof rx rz
    limits (-45.0 45.0)
           (-45.0 45.0)
  end
  begin
     id 24 
     name rclavicle
     direction -0.938556 0.342765 -0.0403177   
     length 3.27019  
     axis 0 0 0   XYZ 
    dof ry rz
    limits (-10.0 20.0)
           (-20.0 0.0)
  end
  begin
     id 25 
     name rhumerus
     direction -1 -4.48966e-011 2.52291e-027  
     length 5.38183   
     axis 180 30 90   XYZ
    dof rx ry rz
    limits (-90.0 60.0)
           (-90.0 90.0)
           (-90.0 90.0)
  end
  begin
     id 26 
     name rradius
     direction -1 -4.4896e-011 1.5797e-027   
     length 3.16988   
     axis 180 30 90   XYZ
    dof rx
    limits (-10.0 170.0)
  end
  begin
     id 27 
     name rwrist
     direction -1 -4.48947e-011 2.56952e-028   
     length 1.58494   
     axis -5.12785e-016 -90 -90   XYZ
    dof ry
    limits (-180.0 0.0)
  end
  begin
     id 28
     name rhand
     direction -1 -4.49098e-011 5.13905e-028   
     length 0.637679   
     axis -3.27915e-016 -90 -90   XYZ
    dof rx rz
    limits (-90.0 90.0)
           (-45.0 45.0)
  end
  begin
     id 29
     name rfingers
     direction -1 -4.49026e-011 1.02781e-027   
     length 0.514113   
     axis -6.5583e-016 -90 -90   XYZ
    dof rx
    limits (0.0 90.0)
  end
  begin
     id 30
     name rthumb
     direction -0.707107 -6.3491e-011 0.707107   
     length 0.738167   
     axis -90 -45 -2.85299e-015   XYZ
    dof rx rz
    limits (-45.0 45.0)
           (-45.0 45.0)
  end
:hierarchy
  begin
    root lhipjoint rhipjoint lowerback
    lhipjoint lfemur
    lfemur ltibia
    ltibia lfoot
    lfoot ltoes
    rhipjoint rfemur
    rfemur rtibia
    rtibia rfoot
    rfoot rtoes
    lowerback upperback
    upperback thorax
    thorax lowerneck lclavicle rclavicle
    lowerneck upperneck
    upperneck head
    lclavicle lhumerus
    lhumerus lradius
    lradius lwrist
    lwrist lhand lthumb
    lhand lfingers
    rclavicle rhumerus
    rhumerus rradius
    rradius rwrist
    rwrist rhand rthumb
    rhand rfingers
  end

#!OML:ASF H:\Swim\Project 1\Capture day 1\Session 1\swimmer.ASF
:FULLY-SPECIFIED
:DEGREES
1
root 5.9498 17.2318 -30.4412 3.03074 -0.357058 2.41588
lowerback -3.37454 -0.600337 -1.2927
upperback 4.30208 -0.577736 -2.52121
thorax 6.35497 -0.279725 -1.95385
lowerneck -17.5145 -3.32468 -6.86947
upperneck 21.7942 -4.95134 8.9452
head 10.255 -1.82209 3.63653
rclavicle 7.25564e-015 6.75868e-015
rhumerus -15.2054 -5.25585 -14.9547
rradius 27.044
rwrist -0.136201
rhand -8.24889 7.86111
rfingers 7.12502
rthumb 17.6693 -21.3561
lclavicle 7.25564e-015 6.75868e-015
lhumerus -19.6999 7.94379 13.2994
lradius 25.8035
lwrist -19.1115
lhand -17.3474 -1.10974
lfingers 7.12502
lthumb 8.9001 28.6826
rfemur -13.4656 28.6241 14.9799
rtibia 37.5131
rfoot -41.9457 -32.8712
rtoes 13.6004
lfemur -13.8129 -21.0745 -18.8536
ltibia 35.004
lfoot -21.7326 26.5304
ltoes 3.23338
2
root 5.9484 17.232 -30.442 3.02294 -0.364097 2.45022
lowerback -3.37828 -0.604797 -1.35207
upperback 4.30188 -0.579221 -2.53103
thorax 6.3575 -0.28299 -1.931
lowerneck -17.6319 -3.32222 -6.87746
upperneck 21.6048 -4.93086 8.96853
head 10.2084 -1.80943 3.64449
rclavicle -1.36167e-014 -5.1684e-015
rhumerus -15.3065 -4.9763 -14.9545
rradius 27.158
rwrist -0.293496
rhand -8.34271 7.74144
rfingers 7.12502
rthumb 17.5791 -21.4838
lclavicle -1.36167e-014 -5.1684e-015
lhumerus -19.7425 8.07806 13.3135
lradius 25.7082
lwrist -19.4153
lhand -17.4451 -1.13354
lfingers 7.12502
lthumb 8.80583 28.6627
rfemur -13.4686 28.5592 14.9385
rtibia 37.5133
rfoot -41.847 -32.8692
rtoes 13.5556
lfemur -13.8003 -21.0015 -18.884
ltibia 34.9893
lfoot -21.7778 26.4383
ltoes 3.41849
3
root 5.94689 17.2325 -30.4432 3.03094 -0.367962 2.41468
lowerback -3.37092 -0.605381 -1.31011
upperback 4.26869 -0.58337 -2.54012
thorax 6.31743 -0.282953 -1.96364
lowerneck -17.7264 -3.30722 -6.84841
upperneck 21.4427 -4.90089 8.96873
head 10.1648 -1.79231 3.63986
rclavicle -1.68967e-015 -3.97569e-015
rhumerus -15.4056 -4.85478 -14.9634
rradius 27.2021
rwrist -0.320984
rhand -8.35372 7.72489
rfingers 7.12502
rthumb 17.5685 -21.5013
lclavicle -1.68967e-015 -3.97569e-015
lhumerus -19.8204 7.85197 13.2948
lradius 25.6713
lwrist -19.4221
lhand -17.4084 -1.14308
lfingers 7.12502
lthumb 8.84121 28.6517
rfemur -13.4822 28.5736 14.9754
rtibia 37.5006
rfoot -41.7919 -32.9678
rtoes 13.4261
lfemur -13.8204 -20.8909 -18.8274
ltibia 34.9875
lfoot -21.6888 26.3902
ltoes 3.14103
4
root 5.94474 17.2327 -30.4453 3.02188 -0.352716 2.42618
lowerback -3.34501 -0.615291 -1.3501
upperback 4.25849 -0.595458 -2.53446
thorax 6.29188 -0.291012 -1.93569
lowerneck -17.7953 -3.30457 -6.8981
upperneck 21.2523 -4.87413 9.00591
head 10.1097 -1.77982 3.66101
rclavicle -7.85199e-015 -1.70955e-014
rhumerus -15.4136 -4.97726 -14.9372
rradius 27.1394
rwrist -0.200017
rhand -8.32032 7.83314
rfingers 7.12502
rthumb 17.6006 -21.3902
lclavicle -7.85199e-015 -1.70955e-014
lhumerus -19.8623 7.92734 13.3173
lradius 25.5633
lwrist -19.6769
lhand -17.3637 -1.28858
lfingers 7.12502
lthumb 8.88438 28.5044
rfemur -13.4721 28.4914 14.9684
rtibia 37.4925
rfoot -41.7426 -32.9195
rtoes 13.3815
lfemur -13.8278 -20.7961 -18.8215
ltibia 34.9822
lfoot -21.6422 26.2995
ltoes 3.16577
5
root 5.94279 17.2329 -30.447 3.01738 -0.344779 2.42749
lowerback -3.32718 -0.622063 -1.36805
upperback 4.24385 -0.60433 -2.53465
thorax 6.26609 -0.296296 -1.92599
lowerneck -17.8593 -3.29898 -6.9421
upperneck 21.0604 -4.84678 9.05022
head 10.0532 -1.76589 3.68382
rclavicle -7.15625e-015 -2.82274e-014
rhumerus -15.4608 -4.97456 -14.9231
rradius 27.1287
rwrist -0.16937
rhand -8.32926 7.86578
rfingers 7.12502
rthumb 17.592 -21.3583
lclavicle -7.15625e-015 -2.82274e-014
lhumerus -19.9148 7.91936 13.3236
lradius 25.4773
lwrist -19.8562
lhand -17.3426 -1.36366
lfingers 7.12502
lthumb 8.90476 28.4284
rfemur -13.4689 28.4407 14.9696
rtibia 37.4805
rfoot -41.6839 -32.9261
rtoes 13.3223
lfemur -13.8375 -20.7086 -18.8068
ltibia 34.982
lfoot -21.5982 26.2173
ltoes 3.15997
